<mxfile host="app.diagrams.net" modified="2024-06-05T02:43:20.820Z" agent="Mozilla/5.0 (Windows NT 10.0; Win64; x64) AppleWebKit/537.36 (KHTML, like Gecko) Chrome/125.0.0.0 Safari/537.36" etag="Wo4BCn5jqPBU8CV2waiZ" version="24.4.13" type="github">
  <diagram name="Page-1" id="59d38sb6x3rLdW95N4Ac">
    <mxGraphModel dx="1110" dy="695" grid="1" gridSize="10" guides="1" tooltips="1" connect="1" arrows="1" fold="1" page="1" pageScale="1" pageWidth="850" pageHeight="1100" math="0" shadow="0">
      <root>
        <mxCell id="0" />
        <mxCell id="1" parent="0" />
        <mxCell id="PCttoBjK1oMWU9wmJXal-2" style="edgeStyle=orthogonalEdgeStyle;rounded=0;orthogonalLoop=1;jettySize=auto;html=1;entryX=0.5;entryY=0;entryDx=0;entryDy=0;endSize=8;" edge="1" parent="1" source="PCttoBjK1oMWU9wmJXal-1" target="PCttoBjK1oMWU9wmJXal-3">
          <mxGeometry relative="1" as="geometry">
            <mxPoint x="435" y="200" as="targetPoint" />
          </mxGeometry>
        </mxCell>
        <mxCell id="PCttoBjK1oMWU9wmJXal-1" value="Start level" style="rounded=1;whiteSpace=wrap;html=1;" vertex="1" parent="1">
          <mxGeometry x="345" y="80" width="180" height="60" as="geometry" />
        </mxCell>
        <mxCell id="PCttoBjK1oMWU9wmJXal-8" style="edgeStyle=orthogonalEdgeStyle;rounded=0;orthogonalLoop=1;jettySize=auto;html=1;entryX=0.5;entryY=0;entryDx=0;entryDy=0;endSize=8;" edge="1" parent="1" source="PCttoBjK1oMWU9wmJXal-3" target="PCttoBjK1oMWU9wmJXal-9">
          <mxGeometry relative="1" as="geometry">
            <mxPoint x="435" y="310" as="targetPoint" />
          </mxGeometry>
        </mxCell>
        <mxCell id="PCttoBjK1oMWU9wmJXal-27" style="edgeStyle=orthogonalEdgeStyle;rounded=0;orthogonalLoop=1;jettySize=auto;html=1;exitX=0;exitY=0.75;exitDx=0;exitDy=0;entryX=1;entryY=0.25;entryDx=0;entryDy=0;endSize=8;" edge="1" parent="1" source="PCttoBjK1oMWU9wmJXal-3" target="PCttoBjK1oMWU9wmJXal-28">
          <mxGeometry relative="1" as="geometry">
            <mxPoint x="620" y="215" as="targetPoint" />
          </mxGeometry>
        </mxCell>
        <mxCell id="PCttoBjK1oMWU9wmJXal-3" value="Move units" style="rounded=1;whiteSpace=wrap;html=1;" vertex="1" parent="1">
          <mxGeometry x="375" y="200" width="120" height="60" as="geometry" />
        </mxCell>
        <mxCell id="PCttoBjK1oMWU9wmJXal-5" value="" style="endArrow=classic;html=1;rounded=0;exitX=1;exitY=0.25;exitDx=0;exitDy=0;entryX=1;entryY=0.5;entryDx=0;entryDy=0;edgeStyle=orthogonalEdgeStyle;endSize=8;" edge="1" parent="1" source="PCttoBjK1oMWU9wmJXal-3" target="PCttoBjK1oMWU9wmJXal-3">
          <mxGeometry width="50" height="50" relative="1" as="geometry">
            <mxPoint x="375" y="215" as="sourcePoint" />
            <mxPoint x="375" y="245" as="targetPoint" />
            <Array as="points">
              <mxPoint x="510" y="215" />
              <mxPoint x="510" y="230" />
            </Array>
          </mxGeometry>
        </mxCell>
        <mxCell id="PCttoBjK1oMWU9wmJXal-11" style="edgeStyle=orthogonalEdgeStyle;rounded=0;orthogonalLoop=1;jettySize=auto;html=1;entryX=0.5;entryY=1;entryDx=0;entryDy=0;exitX=0;exitY=0.5;exitDx=0;exitDy=0;endSize=8;" edge="1" parent="1" source="PCttoBjK1oMWU9wmJXal-21" target="PCttoBjK1oMWU9wmJXal-10">
          <mxGeometry relative="1" as="geometry" />
        </mxCell>
        <mxCell id="PCttoBjK1oMWU9wmJXal-13" style="edgeStyle=orthogonalEdgeStyle;rounded=0;orthogonalLoop=1;jettySize=auto;html=1;entryX=0.5;entryY=0;entryDx=0;entryDy=0;endSize=8;" edge="1" parent="1" source="PCttoBjK1oMWU9wmJXal-9" target="PCttoBjK1oMWU9wmJXal-21">
          <mxGeometry relative="1" as="geometry">
            <mxPoint x="310" y="610" as="targetPoint" />
          </mxGeometry>
        </mxCell>
        <mxCell id="PCttoBjK1oMWU9wmJXal-24" style="edgeStyle=orthogonalEdgeStyle;rounded=0;orthogonalLoop=1;jettySize=auto;html=1;entryX=1;entryY=0.5;entryDx=0;entryDy=0;endSize=8;" edge="1" parent="1" source="PCttoBjK1oMWU9wmJXal-9" target="PCttoBjK1oMWU9wmJXal-25">
          <mxGeometry relative="1" as="geometry">
            <mxPoint x="287.5" y="610" as="targetPoint" />
          </mxGeometry>
        </mxCell>
        <mxCell id="PCttoBjK1oMWU9wmJXal-9" value="Fight enemy units" style="rounded=1;whiteSpace=wrap;html=1;" vertex="1" parent="1">
          <mxGeometry x="375" y="580" width="120" height="60" as="geometry" />
        </mxCell>
        <mxCell id="PCttoBjK1oMWU9wmJXal-10" value="Buy units" style="rounded=1;whiteSpace=wrap;html=1;" vertex="1" parent="1">
          <mxGeometry x="7.5" y="580" width="120" height="60" as="geometry" />
        </mxCell>
        <mxCell id="PCttoBjK1oMWU9wmJXal-12" value="" style="endArrow=classic;html=1;rounded=0;exitX=0.5;exitY=0;exitDx=0;exitDy=0;entryX=0;entryY=0.25;entryDx=0;entryDy=0;endSize=8;" edge="1" parent="1" source="PCttoBjK1oMWU9wmJXal-10" target="PCttoBjK1oMWU9wmJXal-3">
          <mxGeometry width="50" height="50" relative="1" as="geometry">
            <mxPoint x="510" y="450" as="sourcePoint" />
            <mxPoint x="375" y="245" as="targetPoint" />
            <Array as="points">
              <mxPoint x="70" y="215" />
            </Array>
          </mxGeometry>
        </mxCell>
        <mxCell id="PCttoBjK1oMWU9wmJXal-17" style="edgeStyle=orthogonalEdgeStyle;rounded=0;orthogonalLoop=1;jettySize=auto;html=1;entryX=0.5;entryY=0;entryDx=0;entryDy=0;endSize=8;" edge="1" parent="1" source="PCttoBjK1oMWU9wmJXal-15" target="PCttoBjK1oMWU9wmJXal-18">
          <mxGeometry relative="1" as="geometry">
            <mxPoint x="250" y="820" as="targetPoint" />
          </mxGeometry>
        </mxCell>
        <mxCell id="PCttoBjK1oMWU9wmJXal-15" value="Reach final objective" style="rounded=1;whiteSpace=wrap;html=1;" vertex="1" parent="1">
          <mxGeometry x="375" y="820" width="120" height="60" as="geometry" />
        </mxCell>
        <mxCell id="PCttoBjK1oMWU9wmJXal-18" value="Victory" style="rounded=1;whiteSpace=wrap;html=1;" vertex="1" parent="1">
          <mxGeometry x="375" y="940" width="120" height="60" as="geometry" />
        </mxCell>
        <mxCell id="PCttoBjK1oMWU9wmJXal-22" style="edgeStyle=orthogonalEdgeStyle;rounded=0;orthogonalLoop=1;jettySize=auto;html=1;endSize=8;" edge="1" parent="1" source="PCttoBjK1oMWU9wmJXal-21">
          <mxGeometry relative="1" as="geometry">
            <mxPoint x="435" y="820" as="targetPoint" />
          </mxGeometry>
        </mxCell>
        <mxCell id="PCttoBjK1oMWU9wmJXal-21" value="Kill enemy units" style="rounded=1;whiteSpace=wrap;html=1;" vertex="1" parent="1">
          <mxGeometry x="375" y="700" width="120" height="60" as="geometry" />
        </mxCell>
        <mxCell id="PCttoBjK1oMWU9wmJXal-23" value="" style="endArrow=classic;html=1;rounded=0;entryX=1;entryY=0.5;entryDx=0;entryDy=0;exitX=1;exitY=0.75;exitDx=0;exitDy=0;endSize=8;" edge="1" parent="1" source="PCttoBjK1oMWU9wmJXal-3" target="PCttoBjK1oMWU9wmJXal-15">
          <mxGeometry width="50" height="50" relative="1" as="geometry">
            <mxPoint x="500" y="230" as="sourcePoint" />
            <mxPoint x="600" y="180" as="targetPoint" />
            <Array as="points">
              <mxPoint x="560" y="245" />
              <mxPoint x="560" y="410" />
              <mxPoint x="560" y="850" />
            </Array>
          </mxGeometry>
        </mxCell>
        <mxCell id="PCttoBjK1oMWU9wmJXal-26" style="edgeStyle=orthogonalEdgeStyle;rounded=0;orthogonalLoop=1;jettySize=auto;html=1;entryX=1;entryY=0.5;entryDx=0;entryDy=0;endSize=8;" edge="1" parent="1" source="PCttoBjK1oMWU9wmJXal-25" target="PCttoBjK1oMWU9wmJXal-10">
          <mxGeometry relative="1" as="geometry" />
        </mxCell>
        <mxCell id="PCttoBjK1oMWU9wmJXal-32" style="edgeStyle=orthogonalEdgeStyle;rounded=0;orthogonalLoop=1;jettySize=auto;html=1;entryX=0.5;entryY=1;entryDx=0;entryDy=0;endSize=8;" edge="1" parent="1" source="PCttoBjK1oMWU9wmJXal-25" target="PCttoBjK1oMWU9wmJXal-31">
          <mxGeometry relative="1" as="geometry" />
        </mxCell>
        <mxCell id="PCttoBjK1oMWU9wmJXal-25" value="Die to enemy units" style="rounded=1;whiteSpace=wrap;html=1;" vertex="1" parent="1">
          <mxGeometry x="190" y="580" width="120" height="60" as="geometry" />
        </mxCell>
        <mxCell id="PCttoBjK1oMWU9wmJXal-29" style="edgeStyle=orthogonalEdgeStyle;rounded=0;orthogonalLoop=1;jettySize=auto;html=1;endSize=8;" edge="1" parent="1" source="PCttoBjK1oMWU9wmJXal-28" target="PCttoBjK1oMWU9wmJXal-30">
          <mxGeometry relative="1" as="geometry">
            <mxPoint x="680" y="320" as="targetPoint" />
          </mxGeometry>
        </mxCell>
        <mxCell id="PCttoBjK1oMWU9wmJXal-28" value="Run out of turns" style="rounded=1;whiteSpace=wrap;html=1;" vertex="1" parent="1">
          <mxGeometry x="190" y="230" width="120" height="60" as="geometry" />
        </mxCell>
        <mxCell id="PCttoBjK1oMWU9wmJXal-30" value="Defeat" style="rounded=1;whiteSpace=wrap;html=1;" vertex="1" parent="1">
          <mxGeometry x="190" y="340" width="120" height="60" as="geometry" />
        </mxCell>
        <mxCell id="PCttoBjK1oMWU9wmJXal-33" style="edgeStyle=orthogonalEdgeStyle;rounded=0;orthogonalLoop=1;jettySize=auto;html=1;entryX=0.5;entryY=1;entryDx=0;entryDy=0;endSize=8;" edge="1" parent="1" source="PCttoBjK1oMWU9wmJXal-31" target="PCttoBjK1oMWU9wmJXal-30">
          <mxGeometry relative="1" as="geometry" />
        </mxCell>
        <mxCell id="PCttoBjK1oMWU9wmJXal-31" value="Get overrun" style="rounded=1;whiteSpace=wrap;html=1;" vertex="1" parent="1">
          <mxGeometry x="190" y="460" width="120" height="60" as="geometry" />
        </mxCell>
      </root>
    </mxGraphModel>
  </diagram>
</mxfile>
